<svg version="1.0" xmlns="http://www.w3.org/2000/svg" width="169.333" height="169.333" viewBox="0 0 127 127"><path d="M87.9.2c-.7 2.7-.4 4 .9 4.5.9.4 2.7 1.3 3.9 2.1L95 8.2l-4.1 3c-6 4.3-3.6 5.9 2.8 1.9 3.2-2 6.3-3.1 8.7-3.1 2.5 0 3.6-.4 3.6-1.5S104.9 7 102.2 7c-2.6 0-5.3-1-9-3.5-2.8-2-5.2-3.4-5.3-3.3zM114.2 39l.3 32.5 3.5.1c1.9 0 4-.1 4.6-.3.7-.3 1-10.9 1-32.5l-.1-32.2h-4.8l-4.7-.1.2 32.5zM97.5 18.6c-4.4 2-8.4 3.9-8.8 4.4-.5.4 2.2 2.2 6 4 10.8 5.1 11.3 5.3 11.3 3 0-1.1-.7-2-1.5-2-2.2 0-2.1-7.9.1-9.5.9-.6 1.5-1.7 1.3-2.3-.3-.7-3.4.2-8.4 2.4zm2.5 4.8c0 2.3-.2 2.4-3 1.3l-3-1.1 2.3-1.3c3.2-1.8 3.7-1.6 3.7 1.1zm-12.5 9.5c-.7 1.2.8 2.2 6.5 4.2l4.5 1.7-3.5 1.4c-1.9.8-4.4 1.8-5.4 2.2-2.4.8-2.2 1 3.8 3.4l4.9 1.9-4.9 1.9c-5.1 1.9-6.9 3.3-5.5 4.7.6.6 14-4 17.5-6.1.5-.3-1.5-1.4-4.5-2.5l-5.4-2 5.5-2.5 5.5-2.4-8.4-3.4c-9.3-3.7-9.7-3.8-10.6-2.5zM77 52.2c-2.5.5-6.3 1.4-8.4 2l-4 1 6.3 3c6.9 3.3 6.9 3.5-1.1 7.3-2.1.9-3.8 2-3.8 2.4 0 .9 16.1 4.2 17.2 3.5 1.7-1.1.7-2.3-2.4-2.9-7.1-1.4-7.1-1.5-1.8-4.3l5.1-2.6-5.3-2.7-5.2-2.6 3.4-.7c6-1.3 7-1.7 7-3.2 0-1.6-.6-1.6-7-.2zm13.1 7.5c-1.5 1.3-2.2 3.2-2.5 6.5-.2 2.7 0 4.9.3 4.9.3.1 4.5.2 9.4.3 7.9.1 8.7 0 8.7-1.7 0-1.4-.7-1.8-2.7-1.7-1.6.1-3.2.2-3.6.1-1.5-.2 1.4-4.2 3.9-5.3 1.3-.6 2.4-1.9 2.4-3 0-2.2-.4-2.2-3.5-.2-2.3 1.5-2.8 1.5-5.9 0-4.2-2-3.9-2-6.5.1zm6 3.8c.4 4.9.4 5-2.1 4.7-3.3-.5-4-1.3-3.4-4 .7-2.6 5.3-3.2 5.5-.7zM1.7 77.4C.5 78.3 0 79.8.2 81.6c.3 2.7.9 3.2 7.8 6.4.8.4 1.5 1.3 1.5 2.1 0 1.8-5.2 2.4-7 .9-1.2-1-1.6-.9-2.1.5-.9 2.2 1.2 3.5 5.7 3.5 3.9 0 6.9-2.4 6.9-5.6 0-3-1.2-4.1-5.8-5.5-5.6-1.6-5.5-4.4.2-4.4 4.4 0 5.9-1.9 2.4-2.9-3.6-.9-6.1-.7-8.1.8zm16-.6c-.2.4-.3 4.5-.3 9.2l.1 8.5 5.3.3c4.2.2 5.2 0 5.2-1.2 0-1.1-1-1.6-3.3-1.6-4 0-4.6-.5-4-3 .3-1.2 1.6-2 3.7-2.2 1.7-.2 3.1-.8 3.1-1.3 0-.6-1.4-1.1-3.1-1.3-2.1-.2-3.4-1-3.7-2.2-.6-2.5 0-3 4-3 2 0 3.3-.5 3.3-1.3 0-1.3-9.6-2.3-10.3-.9zm17.5 8.1c-2.3 5-4.2 9.4-4.2 9.6 0 1.2 3 .3 3.8-1.1 1.4-2.5 8-2.7 9.3-.3.9 1.8 4 2.7 3.8 1.1 0-.4-1.9-4.7-4.2-9.6l-4.2-9-4.3 9.3zm6.8 3.3c0 .5-1.1.8-2.5.8-2.9 0-2.9 0-1.3-3.5l1.2-2.6 1.3 2.3c.7 1.3 1.2 2.6 1.3 3zm9.7-11.5c-.2.5-.3 4.6-.3 9.3.1 6.8.4 8.5 1.6 8.5.8 0 1.6-.9 1.6-2 .1-1.1.2-2.8.3-3.8.1-1.2 1-1.7 3.1-1.7 2 0 3-.5 3-1.5S60 84 58.1 84c-3.3 0-4.4-1.1-3.5-3.4.4-1 1.8-1.6 4-1.6 2.6 0 3.2-.3 2.8-1.5-.6-1.6-8.9-2.2-9.7-.8zm17.1 1.1c-3.6 2.2-5.2 6.8-3.7 10.9 3.1 9 16.6 8.1 18.3-1.2 1.6-8.6-7.1-14.4-14.6-9.7zm9.4 2.9C82 84.2 79.4 92 74.3 92c-5.6 0-8.6-8.3-4.1-11.4 2.9-2.1 5.7-2 8 .1zm12.4-2.4c-2.4 2-2.9 3.1-3 7.1-.1 4.1.3 5.1 2.7 7.2 5.4 4.6 13.5 2.4 15.7-4.2 3.1-9.3-7.7-16.2-15.4-10.1zm10.6 2.4c2.6 2.3 2.4 7.8-.4 9.7-1.2.9-3 1.6-3.9 1.6-2.8 0-6.1-3.4-6.1-6.3 0-5.7 6.3-8.7 10.4-5zm9.8 4.8v9.8l5.6-.6c7.6-.8 9.4-2.6 9.4-9.3 0-4.6-.4-5.6-2.4-6.9-1.4-.9-4.7-1.9-7.5-2.2l-5.1-.5v9.7zm10-4.7c4.5 3.7 2 10.4-4 10.8l-3 .2v-6.4c0-6.1.1-6.4 2.4-6.4 1.3 0 3.4.8 4.6 1.8zm-41.2 19.4c-2.6 1.8-2.9 1.8-5 .4-5.4-3.8-9.8-.7-9.8 6.8v4.7l9.3-.3c9.4-.3 12.1-1.8 5-2.8l-3.8-.6 4.2-3.9c4.7-4.5 4.8-7.8.1-4.3zm-5.8 6.3c0 2.1-.5 2.5-3 2.5-2.6 0-3-.3-3-2.9 0-1.6.6-3.1 1.3-3.4 2.1-.8 4.7 1.3 4.7 3.8zm13.8-5.8c-1.3 1.6.1 2.1 6 2.5l4.4.3-4.2 4c-7.5 7.3-7.4 7.5 3 7.5 8.2 0 9.1-.2 8.8-1.7-.3-1.5-1.3-1.8-5.7-1.6l-5.4.2 5.6-5.7c3.2-3.2 5.7-6 5.7-6.2 0-1.2-17.2-.4-18.2.7zM65 121v5h9c7.3 0 9-.3 9-1.5 0-1-1.1-1.5-3.5-1.5-3.2 0-3.5-.3-3.5-2.9 0-1.6-.6-3.1-1.5-3.5-1.2-.4-1.5.3-1.5 2.9 0 3.1-.3 3.5-2.5 3.5s-2.5-.4-2.5-3.5c0-2.4-.5-3.5-1.5-3.5-1.1 0-1.5 1.2-1.5 5z"/></svg>