<svg width="180" height="166" fill="none" xmlns="http://www.w3.org/2000/svg"><path d="M95.411.613c-3.39.494-15.978 1.722-21.66 2.103-3.25.226-10.803.269-12.899.085-1.069-.099-1.308-.17-1.969-.607-1.013-.692-1.646-.861-2.841-.79-1.393.098-2.434.62-3.601 1.792-1.14 1.158-1.561 2.005-1.66 3.276-.07 1.087.141 3.74.535 6.338.422 2.81.59 5.026.492 6.184-.07.692-.352 1.877-.773 3.204-.38 1.158-1.013 3.19-1.407 4.518-1.28 4.235-2.363 6.607-3.91 8.54-1.35 1.709-3.53 3.248-5.444 3.855-1.378.438-2.447.536-6.821.663-2.94.071-4.839.198-5.655.34-1.87.338-4.571 1.284-6.695 2.343-4.276 2.131-7.005 4.376-10.127 8.371-.675.861-2.11 2.668-3.193 4.024-3.32 4.15-3.854 4.856-4.346 5.887-.872 1.764-.957 2.273-.999 6.352-.028 3.883-.14 4.913-.999 8.965C.4 80.926.131 82.62.033 85.09c-.07 1.638-.042 2.104.225 3.318.155.776.352 1.708.408 2.075.084.536.267.833.9 1.525C2.79 93.32 4.703 96.85 5.111 98.53c.056.211.351.677.647 1.016.787.89 1.054 2.089 1.322 5.774.21 3.007.408 4.193.914 5.576.928 2.499 3.024 5.393 5.092 7.017 1.027.804 2.77 1.764 3.22 1.764.155 0 .31.198.423.523.225.691.59 1.284 1.94 3.063 1.646 2.174 1.886 2.965 2.125 7.214.084 1.468.183 2.809.239 2.951.168.578 4.065 5.308 6.61 8.032 1.534 1.638 1.787 1.779 3.587 1.892 1.224.085 1.238.085 2.04.777.45.381 1.477 1.115 2.264 1.637 5.697 3.699 6.78 4.546 6.78 5.294 0 .565.295 1.2.942 2.019.746.932 1.041 1.511 1.154 2.273l.084.635.985.311c1.012.339 2.123.819 6.048 2.668 3.376 1.581 5.091 2.075 7.243 2.075 1.477 0 1.984-.141 3.053-.833 1.139-.734 1.378-.79 2.025-.494l.549.24.394-.367c.351-.339.506-.381 1.308-.381 1.913 0 3.108.635 4.641 2.485 1.955 2.357 2.49 2.71 4.698 3.19 1.618.339 5.19.466 9.283.325l3.095-.099 1.406-1.384c1.716-1.68 2.35-1.962 4.515-2.075 2.363-.127 5.064.424 7.23 1.483.577.282 1.111.494 1.182.465.084-.014 1.983-.084 4.219-.155 4.375-.141 5.247-.24 6.963-.776 1.406-.452 2.433-1.144 4.093-2.753 1.561-1.525 2.377-2.09 3.727-2.57 1.843-.677 3.094-.889 5.134-.875 1.702 0 2.011.042 2.996.381l1.111.381 1.561-.903c2.166-1.256 4.473-2.344 6.639-3.134 2.293-.819 3.024-1.2 3.826-1.934.83-.762.999-1.13 1.224-2.668.112-.72.253-1.44.309-1.596.253-.72 1.196-1.722 2.701-2.922.9-.72 2.363-1.99 3.235-2.837 1.871-1.807 2.743-2.302 3.798-2.16 2.081.296 1.687.437 3.966-1.398 4.867-3.939 6.456-5.873 7.314-8.965.31-1.115.394-3.19.211-4.715-.084-.663-.056-.819.267-1.298.197-.311.816-1.539 1.365-2.739 1.041-2.273 1.913-3.741 2.63-4.419.225-.212 1.069-.72 1.871-1.129 1.617-.805 1.533-.72 3.038-3.346 2.335-4.094 3.418-7.468 3.418-10.673 0-1.708-.197-2.499-1.097-4.277l-.802-1.61V93.08c.014-1.835.239-2.555 2.039-6.296 1.534-3.19 1.941-4.404 2.068-6.226.113-1.736-.127-2.978-.731-3.727-.816-.988-1.294-2.244-1.885-4.87-.605-2.781-.746-3.177-1.519-4.334-.31-.452-1.477-2.697-2.602-4.984-2.757-5.576-5.345-9.868-8.665-14.357-.844-1.143-1.153-1.468-1.491-1.539-.633-.127-1.772-.79-3.15-1.849-1.548-1.186-2.293-1.525-3.967-1.807-1.856-.31-2.447-.565-3.418-1.454-.52-.48-1.266-.974-1.983-1.313-1.083-.508-1.8-.734-5.907-1.892l-1.801-.508-.872-.875c-1.266-1.285-2.279-1.793-6.329-3.219-2.842-.988-3.686-1.37-4.811-2.132l-.872-.579-.084-.889c-.127-1.242-.661-3.007-1.59-5.266-2.081-5.068-2.489-6.31-2.714-8.315-.155-1.313.042-2.95.436-3.797.281-.58.408-.692 2.11-1.737.534-.325.759-.593 1.125-1.355.422-.861.478-1.115.52-2.386l.056-1.44-1.35-.381c-.731-.212-2.757-.861-4.473-1.44-5.992-2.033-8.003-2.598-10.943-3.106-1.673-.296-5.134-.353-8.72-.14-2.152.126-2.194.112-3.263-.255-1.365-.466-2.56-.466-5.669 0zm17.779 2.174c2.082.424 3.657.96 7.961 2.682 2.096.833 4.318 1.694 4.965 1.906l1.168.381-.676.72c-2.208 2.372-3.361 5.21-3.249 7.963.043 1.185.085 1.34.999 3.331 1.069 2.344 1.125 2.541 2.011 6.593.887 4.108 1.407 5.605 2.42 7.002.351.48.562.607 1.308.819 1.378.395 4.276 1.313 5.612 1.807 1.378.494 3.798 1.525 3.798 1.623 0 .029-.099.255-.225.48-.113.24-.197.452-.169.48.028.029.647.198 1.406.396a47.35 47.35 0 013.306 1.1c3.263 1.215 5.823 2.076 6.751 2.26.746.155.886.226.886.465 0 .17.197.495.422.749.31.353.591.48 1.252.607 1.997.367 3.685 1.2 6.878 3.43 1.182.82 2.279 1.54 2.419 1.581.155.043.591.664.999 1.384.408.72 2.265 3.586 4.135 6.395 3.812 5.69 5.148 8.146 6.02 11.068.507 1.694.943 3.91.943 4.814v.522l-1.576-.706c-9.48-4.22-16.386-8.752-31.408-20.597a602.346 602.346 0 00-7.595-5.887c-2.996-2.258-3.404-2.668-3.038-3.035.323-.325.098-.494-1.379-1.073-.83-.324-1.8-.79-2.138-1.03l-.619-.452.605-.141c2.279-.494 7.019 1.948 13.869 7.143 2.982 2.259 5.401 3.953 6.667 4.645a.969.969 0 01.492.677c.056.283.338.664.76 1.045.365.325 1.012.946 1.448 1.384.422.423 1.097.96 1.477 1.185 1.28.734 3.052 1.92 5.767 3.798 4.037 2.795 5.429 3.67 7.68 4.8 1.814.918 5.134 2.174 5.288 2.005.029-.029-.154-.297-.407-.593-.493-.565-1.787-1.257-2.645-1.398-.408-.07-.675-.254-1.195-.861-.844-.988-1.885-1.68-2.94-1.948a4.352 4.352 0 01-1.547-.79c-1.449-1.159-5.148-3.954-7.68-5.789-6.372-4.659-10.127-7.75-12.546-10.39-.31-.34-.647-.622-.746-.622-.352 0-2.968-1.411-4.712-2.54-2.335-1.525-4.304-2.471-5.851-2.852-1.139-.283-1.308-.367-1.885-.96-.928-.974-1.899-1.638-4.613-3.163-3.32-1.877-4.712-3.049-5.486-4.63-.141-.325-.661-.819-1.378-1.355-2.982-2.217-4.811-4.574-9.691-12.522-2.631-4.292-4.952-7.27-5.641-7.27-.591 0-1.336-.396-2.096-1.116-.801-.762-1.434-.96-2.49-.79-1.18.183-1.954.536-3.516 1.595-1.94 1.298-2.686 1.609-3.924 1.609-1.14 0-1.617-.198-3.052-1.27-1.336-.989-2.405-1.54-3.418-1.723-1.097-.212-1.73-.042-2.897.762-.577.396-1.365.904-1.745 1.144-.576.353-.872.706-1.701 2.047-.62.974-1.393 1.99-1.942 2.541-.59.579-1.026 1.158-1.181 1.553-1.027 2.64-2.349 4.179-6.484 7.482-2.546 2.033-3.657 3.035-4.473 4.024a6.418 6.418 0 01-1.604 1.369c-1.87 1.087-3.98 2.781-6.807 5.421-4.839 4.546-5.598 5.11-9.621 7.186-2.785 1.426-4.642 2.583-5.359 3.331l-.408.438.563-.099a16.407 16.407 0 003.446-1.016c2.363-.974 4.05-2.047 8.65-5.548 1.702-1.3 3.573-2.669 4.15-3.064.576-.395 2.01-1.595 3.164-2.654 4.797-4.405 7.919-6.748 11.14-8.386.914-.451 1.153-.649 1.435-1.157 1.04-1.906 2.672-4.25 4.12-5.958.507-.607 1.154-1.637 1.745-2.795 1.618-3.176 2.996-4.32 5.472-4.475l1.167-.07.858.72c1.66 1.397 2.855 1.863 4.726 1.877 1.744.014 2.194-.155 4.29-1.567 1.181-.79 1.899-1.13 2.42-1.13.365 0 .238.396-.423 1.384-.267.395-.45.777-.408.819.183.183.943-.268 1.308-.777.211-.282.408-.536.422-.564.085-.1.479.296.479.494 0 .099-.268.48-.591.86l-.577.679.76.112c.422.057 1.167.057 1.66.015.984-.1.928-.17.632.79-.112.339-.028.339.844.085.746-.226 1.013-.184 1.224.226.197.367-.07.677-.577.677-.829 0-.562.876.422 1.37.661.339 1.533.423 1.984.183.351-.197.351.029-.014.353-.31.283-.366.706-.127.861.084.043.394-.028.689-.155 1.069-.48 1.28.127.338 1.002-.507.48-.619.96-.253 1.102.239.098.9-.212 1.167-.537.225-.268.717-.296.717-.056 0 .099-.239.31-.534.466-.408.225-.507.367-.478.635.042.437.056.452.801.522.718.085.83.339.282.692-.704.452-.282.946.478.565.548-.297 1.266-.297 1.378 0 .042.127-.084.395-.365.677-.718.748-.549 1.002.675 1.002.956 0 1.195.269.745.848-.309.395-.408.974-.197 1.115.071.042.422-.028.802-.141.788-.226 1.266-.156 1.125.197-.394 1.03-.056 1.582.971 1.582.576 0 .633.028.717.437.056.24.605 1.186 1.224 2.104.872 1.298 1.139 1.807 1.195 2.3.071.537.141.65.577.89.267.141.661.424.886.635.352.34.38.424.31 1.2-.127 1.356.098 1.85 1.448 3.332.83.89 1.534 1.863 2.209 3.007.534.932 1.42 2.442 1.955 3.346 1.659 2.852 3.01 4.362 8.13 9.077 2.475 2.287 4.627 4.433 5.977 5.93 2.363 2.654 3.629 3.797 4.937 4.475.83.437.929.536 1.365 1.411l.45.96h.745c.746 0 .746 0 .999.608.141.324.309.804.366 1.058.098.452.098.452.97.452 1.322 0 1.519.339.718 1.172-.268.282-.493.565-.493.65 0 .225.464.296.985.154.802-.225 1.547-.183 1.547.1 0 .126.07.451.169.705.155.438.211.466.872.466.647 0 .731.042 1.336.706.492.536.788.734 1.182.805.422.056.52.127.45.31-.282.678-.38 1.03-.296 1.101.155.156.901.057 1.365-.183.464-.226.464-.226.787.17.436.55.408.761-.168 1.227-.268.212-.493.452-.493.537 0 .099.507.127 1.407.099.774-.029 1.406-.029 1.406 0 0 .028-.168.268-.379.536-.31.424-.338.523-.169.635.408.269.886.297 1.617.1 1.14-.326 1.407.126.549.931-.267.268-.492.579-.492.706 0 .197.098.226.675.155.605-.085.717-.042 1.364.41.535.395.844.508 1.294.508h.577l-.056.522c-.099.805.042.918.83.65.562-.184.759-.198 1.294-.043.745.212 1.631 1.101 1.884 1.878l.183.522h.9c.971 0 1.055.085.732.776-.085.198-.113.396-.071.452.155.156.901.07 1.323-.14.211-.114.562-.24.787-.297.38-.085.38-.085.38.579v.677h1.449c1.28 0 1.519.042 2.138.367l.703.367-.042.974c-.014.537-.197 1.75-.38 2.71-.478 2.33-.548 3.191-.366 4.18.085.465.127.875.085.903-.127.127-1.871-.706-2.912-1.383-.562-.382-1.842-1.37-2.855-2.189-2.18-1.82-3.165-2.498-4.403-3.077-.717-.325-1.308-.777-2.489-1.92-.844-.833-3.095-2.795-4.993-4.39-3.756-3.149-6.668-5.972-7.877-7.624-.422-.593-1.632-1.864-2.743-2.88-8.285-7.666-14.741-14.287-19.396-19.92-5.205-6.282-9.748-13.2-12.983-19.736-.576-1.157-1.069-2.075-1.097-2.046-.098.098.352 2.103.717 3.218.507 1.51 1.562 3.685 3.686 7.497 3.544 6.409 5.457 9.204 8.65 12.649.802.875 1.617 1.891 1.828 2.287.507.903 15.022 15.557 17.695 17.844 1.055.904 2.068 1.878 2.25 2.174 1.519 2.527 4.079 5.012 9.27 9.007 2.461 1.892 4.599 3.699 5.682 4.814.408.423.844.762.985.762.126 0 .661.226 1.195.494.521.269 1.027.494 1.125.494.099 0 .521.34.929.763.408.41 1.28 1.073 1.927 1.468 1.477.89 2.433 1.736 2.799 2.442.197.395.365.55.605.55.52 0 1.997.82 2.489 1.384 1.871 2.132 1.688 6.494-.464 10.631-.76 1.482-1.814 2.809-2.208 2.809-.352 0-.675-.409-.788-.988-.07-.395-.267-.621-.956-1.13-3.025-2.216-7.314-6.324-13.531-12.987-1.857-1.977-4.558-4.786-6.006-6.226-1.463-1.44-2.645-2.682-2.645-2.753 0-.297-1.336-2.174-2.377-3.304-1.631-1.792-2.546-2.922-4.107-5.011-1.378-1.85-2.757-3.473-5.415-6.353-3.052-3.332-4.6-5.435-5.795-7.934-.591-1.242-.83-1.567-1.688-2.372-1.364-1.27-2.574-2.823-5.078-6.55-1.181-1.75-2.517-3.657-2.982-4.235-.618-.79-1.111-1.666-1.828-3.261-.535-1.2-2.462-5.181-4.276-8.838-2.644-5.308-3.305-6.748-3.305-7.2 0-.635-.282-1.115-.704-1.228-.253-.07-.281 0-.281.621 0 .734.408 2.146.802 2.796.126.197.422.564.633.804.323.353.506.833.886 2.33 1.42 5.66 3.038 8.978 8.96 18.352 1.35 2.132 2.841 4.56 3.333 5.421.942 1.68 1.393 2.188 1.927 2.188.295 0 .338.057.338.508 0 .396.098.593.45.876 1.491 1.27 1.716 1.539 2.405 2.964.717 1.469 1.449 2.372 2.025 2.513.254.07.296.156.225.494-.168.862.282 1.398 1.154 1.398.309 0 .351.07.365.565.015.31.029.635.043.72 0 .07.422.48.928.875 1.139.932 1.871 1.892 2.18 2.866l.239.762h1.337l-.015.593c-.014.579.015.607.887 1.2 1.111.72 1.223.89.928 1.44-.422.847-.239 1.144.717 1.144.45 0 .507.056.76.62.295.692.703.989 1.209.89.422-.07.422-.028-.014.494-.197.226-.323.466-.281.537.028.056.408.282.844.48.83.409 1.097.875.788 1.369a2.004 2.004 0 00-.155.296c0 .029.478.015 1.069 0 .999-.042 1.069-.028.97.212-.07.141-.126.508-.126.819-.014.565-.014.565 1.097 1.158 1.421.776 1.73 1.058 1.843 1.793.126.705.253.875.928 1.214.351.183.661.522.956 1.058.366.65.563.833 1.111 1.073 1.069.438 1.084.452 1.041 1.101-.042.523 0 .593.408.847.253.156.647.325.858.368.408.098.478.197.267.437-.182.198-.295.819-.182 1.003.056.098.506.183 1.012.211 1.055.043 1.196.254.69.946-.507.692-.296.918.773.833 1.449-.127 1.702.24.844 1.186-.647.734-.52.861.957.96.675.042 1.167.141 1.195.24.028.085-.141.381-.38.663-.83.932-.365 1.384 1.055 1.045 1.407-.353 2.166.071 1.477.805-.169.183-.281.437-.253.593.042.211.183.254 1.027.254.956 0 .984.014 1.026.381.029.212-.056.565-.168.805-.127.226-.225.55-.225.72 0 .409.717.381 1.378-.071.605-.423.76-.438 1.041-.113.225.283.197.466-.295 1.497-.254.536-.282.72-.155.889.295.339.562.226 1.209-.466.479-.536.647-.635.788-.494a.709.709 0 00.422.169c.324 0 .31.127-.028.565-.366.466-.352.805.042 1.002.169.099.535.367.816.607.267.24.619.509.774.593.253.142.239.184-.141 1.158-.521 1.285-1.463 2.767-2.616 4.108-.83.974-.929 1.158-1.224 2.301-.169.692-.478 1.511-.703 1.836-.366.55-1.182 1.242-1.463 1.242-.07 0-1.027-1.228-2.138-2.725-2.279-3.063-2.982-3.896-4.304-5.096-.774-.692-1.097-1.144-1.885-2.612-1.35-2.484-2.377-3.995-3.615-5.308-.717-.748-1.364-1.652-1.955-2.682-1.195-2.075-2.799-4.419-5.739-8.344l-2.433-3.26v-.763c-.014-.748-.028-.79-1.42-2.527-1.66-2.09-2.518-3.36-5.12-7.623-2.223-3.629-4.895-7.722-6.456-9.882-.887-1.229-1.069-1.582-1.069-2.02 0-.705-.043-.776-4.164-7.665-5.921-9.91-8.734-15.035-8.58-15.628.141-.579-.197-2.117-.689-3.134-.253-.55-.9-1.595-1.421-2.33a23.926 23.926 0 01-1.561-2.512c-.52-.988-.605-1.299-.605-2.005 0-.748-.098-1.03-.844-2.498-.745-1.483-2.728-4.42-2.981-4.42-.155 0-.282.834-.183 1.3.056.24.295.86.52 1.369.225.508.957 2.301 1.618 3.967 1.42 3.614 1.842 4.461 3.15 6.452 1.266 1.92 1.533 2.54 1.533 3.529 0 1.666 2.04 5.731 7.315 14.512 3.389 5.676 4.908 8.372 5.33 9.544.31.819.535 1.214 2.335 4.08.605.974 1.393 2.3 1.73 2.964.661 1.257 9.115 14.315 14.08 21.74 7.089 10.617 12.659 18.142 18.088 24.466l1.786 2.09-.084.734c-.38 2.88-1.716 5.265-4.177 7.44-1.843 1.651-3.193 2.682-3.461 2.682-.379 0-.815-.523-1.125-1.341-.154-.396-.984-1.652-1.856-2.81-2.799-3.741-5.12-7.341-9.227-14.272-5.43-9.191-6.499-10.955-8.032-13.383-1.392-2.175-1.603-2.584-1.603-3.106 0-1.059-.394-2.372-.9-2.979-1.674-2.075-3.081-4.56-6.752-12.014-1.575-3.19-3.319-6.536-3.868-7.44-.675-1.13-1.139-2.103-1.421-3.007-.576-1.764-1.167-3.19-3.305-7.835-2.419-5.251-3.179-7.059-4.824-11.52a369.322 369.322 0 00-2.814-7.326c-3.052-7.68-3.263-8.301-3.755-11.435-.253-1.638-.844-3.007-1.491-3.473l-.422-.297.07.466c.057.268.211 1.299.38 2.315.478 3.092 1.322 6.777 2.223 9.67.745 2.4 4.149 11.86 5.527 15.318 1.083 2.753 2.827 6.296 3.896 7.934l.844 1.313-.239.635c-.267.734-.169 1.002.478 1.341.226.113.437.226.465.24.014.014-.127.254-.338.523l-.38.508.366.141c.422.155.647.635.647 1.355 0 .537.408 1.045.844 1.045.155 0 .281.085.281.183 0 .113-.126.311-.281.452a.938.938 0 00-.281.607c0 .34.028.34.633.269.604-.085.633-.085.858.423l.253.508-.535.424c-.492.395-.506.423-.281.677.169.198.436.269.9.269s.774.084 1.041.296c.52.41.436.833-.253 1.186-.689.367-.914.692-.703 1.016.168.255.478.283 1.476.1.451-.071.521-.043.591.24.127.465-.07.705-.745.96-.718.267-.802.423-.464.832.253.297.267.297.998.085.408-.127.788-.184.83-.141.042.042-.028.24-.155.423-.281.438-.295.988-.014 1.214.113.1.464.17.774.17.506-.014.562.028.562.338 0 .325-.436.904-.675.904-.211 0-.745.579-.661.706.042.07.619.296 1.266.494 1.041.325 1.21.424 1.294.734.071.31 0 .452-.351.748-.521.424-.549.58-.197.876.393.353.815.423 1.069.183.225-.24.506-.183.506.113 0 .085-.169.325-.366.536-.478.509-.365.833.296.848 1.209.042 1.364.38.548 1.284-.394.452-.464.593-.323.763.211.254.647.254 1.392-.015.324-.113.619-.211.633-.211.028 0 .07.14.113.296.056.226-.028.424-.338.706-.408.381-.548 1.016-.267 1.186.07.042.323-.014.548-.141.619-.31.901-.269 1.182.225l.253.452-.577.523c-.393.367-.534.593-.478.762.113.296.619.508 1.168.508.464 0 .787.325.661.635-.043.127-.31.325-.591.438-.872.367-.338 1.045.844 1.045h.534l-.098.932c-.113 1.087-.042 1.185.872 1.185.591 0 .591.014.52.424-.126.635.029 1.03.718 1.849.351.41.633.861.633 1.017 0 .141-.197.466-.436.706-.394.395-.422.451-.197.607.183.141.351.141.816-.029.661-.226 1.026-.155 1.153.226.112.367 0 .537-.577.777-.309.127-.478.296-.478.466 0 .324.197.423 1.252.649.422.085.787.226.816.311.028.07-.169.254-.45.381-.366.183-.493.324-.493.593 0 .395.071.409 1.28.367.633-.029.802 0 .886.211.141.368-.014.706-.422.89-.295.127-.351.24-.309.621l.042.452.886-.028c.83-.043.872-.029.872.282 0 .183-.154.48-.351.663-.197.184-.352.41-.352.509 0 .211.844.48 1.533.48.605 0 .999.338.999.861 0 .324-.099.452-.478.607-.254.113-.521.268-.577.367-.169.282.295.593 1.083.72 1.294.212 1.477.974.366 1.496-.718.339-.872.692-.45 1.045.182.155.379.127 1.195-.155.9-.311.985-.325 1.196-.113.309.31.168.621-.394.861-.577.24-.844.565-.732.861.099.254.282.282 1.787.24l1.083-.042v.437c0 .353-.169.621-.703 1.2-.788.833-.999 1.454-.633 1.821.267.269.534.184 1.251-.423.451-.381.887-.381 1.126-.014.211.339-.014.677-.619.974-.577.282-.83.621-.746.988.113.409.605.466 1.308.141.76-.353 1.168-.367 1.407-.084.267.324.056.861-.492 1.2-.549.338-.83.762-.718 1.072.099.255 1.027.255 1.491-.014.394-.226 1.238-.268 1.533-.084.338.211.057.564-.745.917-.802.353-1.083.777-.788 1.144.225.268.647.268 1.407 0 .323-.113.689-.212.787-.212.352 0 .197.409-.295.791-.394.296-.492.465-.492.861 0 .579.253.706.83.409a2.1 2.1 0 01.858-.226c.604 0 .576.508-.071 1.13-.492.48-.647.974-.309 1.002.225.028.211.028.914-.226 1.238-.438 1.041-.071-.872 1.694-.999.932-3.038 2.88-4.515 4.348-2.968 2.937-2.771 2.838-3.727 1.892-.633-.621-.999-1.341-1.773-3.416-.365-1.017-1.603-3.685-2.742-5.93-2.504-4.955-3.081-6.31-4.136-9.599-.9-2.866-1.378-4.094-4.177-10.8-2.476-5.958-4.023-9.515-5.303-12.198-.548-1.157-1.195-2.738-1.434-3.529-.985-3.233-1.871-5.647-4.206-11.52a569.496 569.496 0 01-2.827-7.284 231.662 231.662 0 00-1.688-4.447c-.971-2.442-1.519-4.179-2.04-6.55-.689-3.177-.872-3.798-2.602-8.965-.844-2.527-1.814-5.69-2.152-7.03-.478-1.85-.858-2.937-1.575-4.518-.844-1.864-1.041-2.499-1.969-6.212-1.14-4.588-1.758-6.606-2.574-8.272-.577-1.2-.605-1.2-.788.07-.169 1.313.281 3.092 1.477 5.859 1.111 2.541 1.407 3.501 1.561 5.139.282 3.077.408 3.797 1.097 6 .38 1.242 1.21 4.009 1.843 6.14a210.286 210.286 0 001.927 6.142c3.151 9.204 4.318 12.917 5.443 17.265.507 1.977.816 2.81 1.871 5.11 5.134 11.11 7.131 16.038 10.591 26.047 2.012 5.816 4.107 10.673 5.008 11.562.45.466.619.791.815 1.567.788 2.979 2.293 6.579 5.317 12.776 2.068 4.221 3.91 8.358 4.403 9.868.295.918.211 1.144-.872 2.132-.901.819-2.532 1.68-5.373 2.809-2.265.918-3.348 1.426-3.981 1.878-.394.268-.394.268-.816-.028-.52-.367-.815-.932-1.448-2.753-.268-.777-1.14-3.092-1.927-5.153-3.897-10.15-5.528-15.261-6.625-20.823-.31-1.638-.83-2.894-1.182-2.894-.112 0-.211-.042-.211-.085 0-.254-2.166-9.825-2.517-11.138-.226-.862-.704-2.64-1.055-3.953-.788-2.894-.774-2.866-2.434-6.904-1.617-3.924-2.11-5.392-2.869-8.64-.324-1.397-.928-3.966-1.336-5.731-.422-1.765-1.14-5.167-1.618-7.553-.464-2.386-1.027-5.308-1.266-6.466-.225-1.171-1.012-4.56-1.744-7.552-1.871-7.652-3.249-14.202-4.726-22.263-.267-1.426-.52-2.584-.577-2.584-.197 0-.112 5.181.099 7.313.52 4.955 1.885 12.564 3.08 17.054 1.182 4.433 1.336 5.195 1.562 7.962.225 2.654.323 3.106.9 3.812.365.465.394.536.211.86-.239.438-.253 1.285 0 1.864.098.254.436.777.745 1.172.507.635.549.734.38.974-.394.536-.239 1.341.563 2.894l.759 1.468-.337.269c-.451.338-.422.451.154 1.1.535.594.633 1.13.282 1.596-.31.423-.254.734.211 1.115.52.438.534.706.07 1.002-.675.438-.408.904.647 1.13.731.155.562 1.13-.197 1.242-.169.029-.324.156-.352.297-.042.183.155.338.732.607 1.209.55 1.322 1.13.281 1.468-.281.099-.549.296-.605.48-.197.522-.042.678.746.635.408-.014.815.014.9.07.323.198.169.693-.408 1.2-.647.608-.591.735.436 1.003 1.238.31 1.435.79.563 1.37-.76.494-.844.592-.844.945 0 .41.225.509 1.125.509 1.238 0 1.561.847.563 1.482-.31.198-.563.452-.563.565 0 .112.366.395.83.621.45.24.858.522.914.649.155.438.084.635-.225.635-.914.015-1.407.551-1.013 1.116.183.254.352.296 1.126.296.872 0 .9.014.9.353 0 .254-.155.452-.563.706-.492.311-.548.395-.422.635.197.367.689.678 1.238.791.619.127.633.649.028.903-.52.226-.703.523-.605 1.031.071.367.113.381.886.381.788 0 .83.028 1.041.438.267.536.225.621-.52.988-1.308.663-1.322 1.115-.042 1.115.787 0 1.167.198 1.237.621.028.226-.07.311-.548.41-.535.099-.605.155-.605.508 0 .466.155.621.872.847.464.155.675.381.675.734 0 .071-.253.127-.576.127-.535 0-.563.014-.521.395.028.311.197.466.886.805.478.24.858.537.886.678.071.367-.225.663-.689.663-.309 0-.408.071-.408.268 0 .353.296.579.9.678.282.042.507.099.507.127 0 .028-.099.268-.225.537-.338.691-.183 1.143.506 1.44.746.338.774.804.07 1.143-.492.24-.759.72-.562 1.017.042.084.38.155.745.155.915 0 1.266.127 1.379.466.07.226-.014.395-.352.691-.352.325-.577.396-1.139.396-.661 0-.704.028-.704.367 0 .452.676.762 1.731.762.436 0 .858.085 1.026.198.239.197.253.226.043.437-.113.127-.437.339-.704.466-.534.268-.689.72-.337 1.017.126.099.548.254.942.339.675.155.703.183.478.409-.14.127-.408.282-.619.325-.717.155-1.012.324-1.012.621 0 .296.52.607 1.28.762.351.071.379.127.351.819-.014.72-.014.72.619 1.101.844.494.83.819-.056 1.271-.816.409-.914.578-.521.974.24.24.479.296 1.14.296.802 0 .844.014.844.353 0 .268-.127.41-.521.593-.562.268-.745.748-.478 1.172.127.183.211.183.605.014.858-.353 1.027-.297 1.069.367.042.48-.014.621-.253.748a.886.886 0 01-.563.071c-.197-.071-.281-.028-.281.141 0 .353.619.889 1.223 1.045.296.084.662.24.816.353.253.183.253.211.028.55-.126.198-.534.537-.9.748-.38.212-.689.41-.717.424-.028.014.028.169.112.339.155.282.254.296 1.238.254l1.083-.043v.565c0 .537-.014.565-.661.748-.872.24-.914.607-.112 1.017.604.31 1.054.367 1.195.141.141-.226.492.113.394.367-.042.099-.281.325-.549.494-.942.579-.478 1.539.746 1.539.788 0 .802.282.014 1.087-.746.762-.605.974.703 1.101 1.322.127 1.533.184 1.632.438.239.635-.394 1.044-1.576 1.044-.618 0-.618 0-.421.325.126.17.562.438 1.026.593.45.155.844.353.872.438.071.197-1.477.621-4.065 1.115-2.869.536-5.035 1.299-5.584 1.962-.112.127-.239.226-.295.226-.169 0-.928-1.666-1.322-2.894-.535-1.609-.999-4.037-1.491-7.764-.731-5.506-1.224-8.104-1.829-9.897-.337-.974-.351-1.651-.056-1.891.507-.438.507-.664 0-1.949-1.209-3.035-1.842-6.169-2.827-13.792-.956-7.398-1.322-9.459-2.602-14.259-1.35-5.11-1.772-7.214-1.913-9.67l-.098-1.525.379-.367.394-.353-.548-.282c-.31-.155-.633-.367-.732-.48-.281-.353-2.841-15.388-4.093-24.098-.69-4.8-1.153-7.666-2.883-17.718-1.505-8.766-1.9-11.985-1.857-14.922l.028-2.06-.422-.608c-.66-.931-.773-.875-.773.34 0 8.004 2.419 26.751 6.062 46.826 2.025 11.21 2.025 11.181 2.925 14.019.858 2.668.971 3.26 1.069 5.858.113 2.739.436 4.574 1.604 9.459 1.21 4.998 1.336 5.703 2.461 13.157 1.632 10.687 3.643 22.645 5.57 32.894.38 2.061.704 3.783.704 3.84 0 .155-1.407.917-2.588 1.383-3.334 1.341-7.188 1.638-10.156.762l-.717-.197-.085-3.501c-.295-11.054-1.322-21.995-4.543-48.169-.675-5.534-1.519-12.86-2.11-18.423-.436-4.009-.52-5.364-.618-9.811-.057-2.88-.24-6.776-.408-8.823-1.055-13.158-1.168-15.007-1.21-19.27-.042-4.391-.084-5.323-.422-8.189-.253-2.09-.548-3.585-1.027-5.068-.45-1.44-.478-1.37-.731 1.835-.267 3.502-.127 7.51.337 9.515.45 1.906.45 2.062.015 2.471-.408.381-.436.65-.141 1.623.155.495.21 1.285.197 2.725 0 1.878.014 2.09.337 2.725l.338.692h-.38c-.858 0-.928.776-.098 1.171.38.198.52.353.52.593 0 .41-.337.777-.717.777-.352 0-.338.056.155.776.59.861.59 1.172.028 1.567l-.465.325.704.508c.394.282.717.55.717.593 0 .028-.253.325-.577.635l-.576.565.45.381.436.367-.225.734c-.211.692-.197.748.07 1.2.155.254.352.79.436 1.2.155.664.14.777-.084 1.03-.14.156-.338.283-.45.283-.141 0-.113.155.126.593.282.537.324.89.394 3.078.07 2.244.099 2.527.394 3.02.394.664.324.933-.253.933-.633 0-.577.522.14 1.171.732.65.76 1.087.085 1.087-.267 0-.535.07-.577.156-.056.07.169.536.478 1.002.774 1.157.746 1.567-.126 1.694-.267.028-.352.127-.352.381 0 .268.155.438.633.72.985.579 1.168 1.553.281 1.553-.562 0-.66.296-.295.89.408.663.38.931-.127 1.1-.225.085-.421.212-.421.283 0 .212.52.663 1.139.974l.576.31-.351.368c-.774.818-.746 1.411.084 1.722.549.198.45.565-.225.903-.689.34-.66.749.07 1.144.718.381.704.734-.028 1.03-.801.311-.731.735.141.946.492.127.661.24.774.55.154.453-.043.65-.661.65-.563 0-.52.509.112 1.257l.52.593-.393.409-.38.395.295.297c.183.183.478.296.788.296.394 0 .492.057.492.269 0 .352-.366.72-.703.72-.14 0-.38.112-.549.24-.253.225-.267.296-.112.592.084.198.45.551.802.791.689.48 1.012 1.087.731 1.369-.084.085-.506.156-.956.142-.662-.015-.774.014-.704.197.042.127.085.283.085.353 0 .071.351.353.773.621.422.269.844.636.929.791.253.48-.043.932-.746 1.129-.745.212-.956.367-.956.706 0 .353.197.438 1.181.537.718.07.858.127.9.367.07.48-.295.804-.998.875-1.083.127-1.041.579.084 1.002 1.224.466 1.224 1.017 0 1.313-.773.198-1.013.565-.605.974.197.198.465.283.957.283 1.083 0 1.645.621 1.055 1.171-.141.113-.62.353-1.07.523l-.815.31.337.438c.535.706 1.027 1.002 1.646 1.016.507 0 .563.029.563.367 0 .283-.099.41-.422.537l-.83.31c-.9.339-.647 1.003.52 1.342.436.127.9.31 1.013.423.31.297.014.649-.703.861-.774.226-.985.41-.985.904 0 .494.113.564 1.14.649.956.099 1.195.339 1.04 1.045-.112.48-.197.494-1.069.183-.928-.338-1.11-.226-1.11.706 0 1.031.28 1.355 1.195 1.454 1.252.113 1.336.156 1.336.593 0 .579-.31.748-1.477.833-.97.057-1.055.085-1.055.367 0 .466.366.875 1.125 1.299.858.466.915.805.211 1.101-.59.254-.689.466-.492 1.002.14.382.183.382.872.311.83-.099 1.238.071 1.238.522 0 .424-.394.763-.999.876-.647.127-1.11.437-1.11.748 0 .395.294.565 1.209.663 1.097.127 1.322.255 1.322.763 0 .494-.31.621-1.196.48-.422-.057-.703-.029-.844.084-.28.24-.28 1.398.014 1.822.197.268.324.31.816.268 1.646-.184 1.604.706-.056 1.256-.647.212-.788.311-.816.621-.056.509.338.791 1.336.96 1.055.17 1.45.367 1.45.706 0 .424-.338.593-1.393.706-1.083.113-1.505.367-1.365.819.141.423.886.776 1.857.861.872.071.9.071.9.466 0 .522-.337.692-1.322.692-.619 0-.788.042-.788.226 0 .423.296.762.985 1.115.38.183.731.409.774.494.168.282-.352.663-1.027.762-1.013.141-1.07.212-.718 1.003.282.621.296.833.211 2.527-.112 2.103.014 2.569.858 3.134.45.31.465.31.211.621a.99.99 0 01-.703.339c-.253 0-.45.084-.45.169 0 .268.647.762 1.308.988.366.127.661.268.661.339 0 .057-.267.226-.59.367-.521.212-1.196.268-4.473.339-2.265.056-4.023.155-4.234.254l-.38.155-.112-3.769c-.07-2.075-.099-11.746-.057-21.487.113-28.785.07-47.208-.112-56.61a7470.01 7470.01 0 01-.31-16.094c-.112-6.818-.14-7.58-.618-12.225-.493-4.984-.633-7.906-.436-10.01.112-1.298-.057-2.131-.55-2.71l-.323-.367-.098 4.574c-.127 5.887.126 20.908.478 29.336.394 9.204.478 16.813.282 26.413-.24 11.139-.24 11.619-.029 15.176.268 4.504.31 39.204.057 42.282-.211 2.583-.675 6.367-.915 7.552l-.182.847-.62.113c-1.223.226-2.897.015-4.838-.607-1.8-.564-1.828-.578-3.727-.536-1.744.028-1.97 0-2.504-.282-.338-.17-.605-.396-.605-.495 0-.098.211-1.228.479-2.498 1.856-8.894 2.672-17.125 3.67-36.705.69-13.666.943-17.238 2.673-38.258 1.829-22.164 2.335-30.338 2.546-41.971l.098-5.054-.365.17c-.788.366-.872.663-.886 3.444 0 2.188-.057 2.838-.408 4.73-.38 2.004-.408 2.456-.422 5.434 0 3.247 0 3.247-.38 3.911l-.366.663.267.523c.24.48.24.536.028.692-.182.14-.196.296-.098 1.002.155 1.101.113 1.327-.31 1.765l-.351.367.436.353.436.338-.366.946c-.393 1.045-.436 1.61-.182 2.301.126.382.098.678-.24 1.949-.407 1.524-.407 1.736.014 2.837.043.099-.112.41-.351.678-.24.268-.436.536-.436.579 0 .056.154.31.337.55.591.79.591 1.03-.014 1.327-.66.31-.76.748-.281 1.228.31.311.323.367.112.565-.154.155-.253.579-.295 1.256l-.07 1.017-.493.155c-.703.226-.689.537.057.974.337.198.66.466.703.58.042.112-.098.578-.323 1.016-.676 1.355-.774 1.778-.52 2.273.309.592.28.847-.127 1.03-.197.085-.352.268-.352.41 0 .14.155.366.352.494.45.296.436.494-.014 1.03-.366.438-.366.452-.141 1.017.21.522.21.635 0 1.44-.14.536-.197 1.115-.14 1.51.182 1.384.182 1.327-.282 1.482l-.45.142.337.635c.352.692.45 1.524.17 1.51-.971-.028-1.028.17-.324 1.2.59.847.59 1.215 0 1.525l-.479.24c-.126.07.422.734.69.819.436.141.267.41-.296.494-.675.099-.731.635-.14 1.313.239.268.436.593.436.706 0 .31-.45.536-.718.367-.323-.212-.408-.156-.408.325 0 .338.141.564.591.974.563.536.577.55.324.833-.155.169-.436.282-.732.282-.394 0-.464.042-.464.339 0 .211.183.48.492.748.633.508.718 1.045.183 1.101a2.734 2.734 0 00-.745.254l-.394.198.647.536c.675.565 1.04 1.2.872 1.497-.07.099-.324.127-.717.07-.844-.113-1.041 0-1.041.551 0 .452.042.48.576.593.788.155 1 .48.591.917-.577.622-.633 1.031-.267 1.92.619 1.511.647 1.426-.366 1.469-.801.042-.886.07-.844.324.028.156.225.551.465.876.52.734.52.945-.015 1.171-.225.099-.422.226-.422.283 0 .07.324.395.718.734.534.466.675.677.605.861-.113.296-.605.522-1.126.522-.548 0-.436.508.225.918.31.197.563.423.563.494 0 .071-.197.452-.422.819-.563.931-.548 1.313.085 1.835.717.593.618.932-.268.988l-.689.043.253.381c.197.296.267.663.267 1.666 0 1.03.057 1.355.254 1.567.126.155.239.409.239.578 0 .438-.661 1.158-1.07 1.158-.562 0-.337.833.423 1.539.45.423.31.734-.478 1.143-.31.156-.563.353-.563.438 0 .198.984 1.186 1.252 1.271.295.098-.057.578-.718.988-.66.423-.675.706-.028 1.016.45.226.493.283.45.777-.042.494-.084.536-.717.734-.59.183-.661.254-.633.564.028.24.225.452.647.678.605.339.957.776.802 1.016-.042.085-.338.142-.647.142-.647 0-1.111.197-1.111.48 0 .254.675.833 1.251 1.058.24.113.436.283.436.382 0 .24-.506.564-1.083.691-.984.198-.942.833.07 1.356 1.056.536.943 1.397-.196 1.397-.633 0-.704.325-.197.904.661.748.577 1.002-.492 1.355-.507.169-.915.339-.915.367 0 .282.366.621.802.762.69.226 1.027.537 1.027.918 0 .409-.267.635-.9.734-.422.071-.507.141-.507.41 0 .254.141.395.535.578.323.156.534.367.562.551.043.254-.056.31-.52.395-.577.085-.999.494-.999.96 0 .141.254.41.563.607.802.508.76.861-.113.974-.38.043-.801.17-.942.283-.24.169-.253.226-.07.437.112.141.45.396.731.579.59.381.731.904.253.904-.168 0-.492.098-.717.225-.422.212-.422.226-.183.509.14.155.464.367.718.466.83.353.534.861-.577 1.002-.507.071-.647.141-.577.31.296.763.633 2.471.633 3.163 0 .452-.014.819-.042.819-.028 0-.478-.226-1.027-.495-2.335-1.185-4.81-1.75-8.172-1.863l-2.433-.085v-.466c0-.254-.07-.48-.155-.508-.113-.042.098-1.383.69-4.348a372.638 372.638 0 001.701-9.459c.464-2.837 1.322-8.061 1.913-11.618 1.66-10.15 2.42-13.75 3.671-17.647.942-2.894 1.07-3.458 1.182-4.828.098-1.299.197-1.708.576-2.527l.45-.974.113-3.473c.112-3.896.127-3.995 1.519-10.672 1.899-9.106 4.684-24.847 5.64-31.906 1.013-7.468 1.674-15.91 1.688-21.289v-1.242l-.408.212c-.717.381-.886.988-.788 2.95.099 1.906.085 2.062-2.095 18.381-.577 4.348-1.182 9.106-1.35 10.588-.17 1.483-.479 3.402-.704 4.306-1.04 4.15-2.011 9.53-3.587 19.905-1.969 12.861-2.602 16.066-4.655 23.506-1.477 5.336-1.562 5.632-1.87 7.058-.395 1.779-1.154 6.367-1.984 12-1.407 9.614-2.04 13.143-3.109 17.506-1.012 4.15-1.266 4.926-1.645 4.983-.17.028-.31.099-.31.169 0 .212-.942.438-1.35.339-.225-.056-.745-.353-1.168-.649-.956-.72-1.701-.974-4.346-1.525-2.63-.536-3.544-.861-4.262-1.539-.66-.649-.675-.875-.197-2.626.197-.705.479-2.018.633-2.922.352-2.061.732-3.36 1.956-6.79 1.645-4.588 1.73-4.913 1.983-7.511.225-2.216.337-2.668 1.505-5.689.83-2.202 1.153-3.247 1.603-5.365 1.252-5.957 3.01-12.606 5.739-21.698a208.968 208.968 0 001.336-4.644c.352-1.313.591-1.92.844-2.189.352-.367.366-.451.338-1.722-.028-1.313-.028-1.355.76-3.374 3.094-8.047 3.375-8.979 4.599-15.458 1.069-5.605 1.477-7.186 2.49-9.6.674-1.624.984-2.612 1.322-4.235.239-1.172.942-4.165 1.56-6.678.606-2.513 1.337-5.66 1.618-6.988 1.07-5.167 1.871-8.3 2.546-10.066.127-.338-.464-.225-.942.17-.647.55-1.083 1.496-2.757 5.943-.394 1.045-.563 2.047-.76 4.419-.225 2.739-.422 4.15-.633 4.376a1.562 1.562 0 00-.28.636c-.141.607-.465 1.058-.746 1.058-.197 0-.24.156-.254 1.03 0 1.3-.534 2.853-1.336 3.925-.605.82-.647 1.031-.337 2.048.112.38.21.931.21 1.214v.536h-.703c-.464 0-.703.057-.717.17-.042.409.07.62.464.96.281.24.408.465.38.635-.056.24-.197.282-.914.325l-.844.042.056 1.37c.028.776.14 1.552.253 1.778.253.522.253.508-.084.508-.38 0-.985.297-.985.494 0 .085.225.367.493.636.38.367.492.593.492.96 0 .465-.014.48-.45.423-.254-.042-.577-.113-.704-.183-.225-.085-.253-.015-.253.494 0 .677.197 1.129.493 1.129.253 0 .267.155.042.466-.155.198-.267.212-.661.099-.268-.07-.535-.1-.591-.057-.253.156-.113.861.295 1.468.422.636.535.989.296.989-.07 0-.38-.085-.69-.198-.858-.31-1.026.07-.309.72.661.593.563.861-.31.918l-.745.042-.042.678c-.028.494.084 1.058.394 1.948.239.692.394 1.327.351 1.397-.112.184-1.181.452-1.49.382-.507-.142-.296.437.295.832.464.311.562.452.562.848 0 .55-.239.72-1.195.86-.746.1-.746.255-.056.707.689.466.83.593.83.818 0 .156-.183.212-.704.212-.59 0-.703.043-.703.268 0 .142.197.495.422.791.436.55.492.734.31 1.016-.071.127-.254.127-.704 0-.647-.169-1.04-.042-1.125.367-.028.127.21.509.52.847.324.34.577.749.577.904 0 .353-.535.607-1.266.607-.31 0-.563.056-.563.141 0 .325.338.819.704 1.045l.408.24-.52.48c-.521.466-.521.48-.521 1.652v1.171l-.732.043c-.886.056-.956.254-.323.96.562.65.45.847-.422.79-.633-.056-.703-.028-.703.24 0 .17.154.55.351.861.197.311.352.692.352.847 0 .24-.099.283-.563.283-.492 0-.562.042-.562.339 0 .183.197.564.422.86.534.678.562 1.285.056 1.511-.267.127-.464.127-.76.014-.745-.282-.787.325-.07 1.003.267.268.492.593.492.748 0 .311-.52.607-1.069.607-.337 0-.351.042-.267.466.056.24.113.55.155.678.112.395-.296.748-.844.734-.436-.015-.506.028-.506.31 0 .212.168.466.478.706.52.395.717.96.422 1.214-.155.127-.366.113-.844-.014-.549-.155-.661-.155-.858.042-.211.212-.169.283.506.918.605.579.732.776.69 1.101-.043.41-.043.41-1.14.452l-1.111.042.577.41c.464.338.576.508.576.861 0 .367-.042.423-.239.339-.619-.269-.886-.254-.886.042 0 .339.197.508.886.72.436.155.52.24.52.565 0 .691-.407.903-1.476.79-.676-.07-.915-.042-.915.071 0 .197.887 1.101 1.393 1.426.548.353.253.55-.844.55-.69 0-.97.057-.97.17 0 .296.168.466.801.875.45.268.605.466.605.72 0 .325-.042.353-.703.353-.62 0-.704.028-.704.296 0 .17.183.523.422.791.436.494.493.692.296 1.016-.085.127-.253.17-.52.099-.83-.212-1.112-.169-1.154.141-.028.226.098.396.45.621.478.297.928.791.928 1.017 0 .071-.407.113-.914.113-.703 0-.914.042-.914.198 0 .268.337.592.872.875.366.183.408.268.323.663-.154.706-.337.847-.984.763-.31-.043-.675-.113-.802-.17-.21-.084-.253-.028-.253.268 0 .396.197.622.984 1.13.38.24.493.395.493.72 0 .466-.14.494-1.238.282l-.534-.113.042.48c.028.381.154.551.562.819.661.424.746.918.155.762-.69-.183-1.224-.127-1.28.113-.014.127.183.494.464.819.267.339.493.72.493.875 0 .24-.113.269-.915.269-.816 0-.914.028-.914.282 0 .183.183.367.535.522.393.198.534.353.562.65.042.381.028.381-.731.381-.436 0-.788.056-.788.127 0 .353.225.621.76.889.633.325.787.48.787.847 0 .226-.14.254-1.125.254-1.013 0-1.125.029-1.125.269 0 .155.253.578.562.931.577.664.985 1.342.985 1.624 0 .085-.436.141-1.125.141-1.013 0-1.126.028-1.126.268 0 .269.605.861.887.861.253 0 .66.452.66.72 0 .142-.154.368-.337.48-.281.184-.45.198-.886.085-.83-.24-1.027-.197-1.027.198 0 .212.14.437.366.593.647.437 1.181 1.002 1.181 1.228 0 .183-.168.226-.886.226-1.266 0-1.378.183-.576 1.002.436.452.633.748.576.89-.14.367-.534.437-.97.183-.24-.127-.577-.24-.774-.24-.548 0-.38.565.267.918.38.197.535.381.535.593 0 .296-.07.324-.703.324-.38 0-.704.029-.704.071 0 .042.226.395.493.79.267.396.492.791.492.89 0 .085.042.296.084.466.085.296.043.324-.393.324-.268 0-.887-.197-1.379-.437-.914-.466-2.644-1.977-3.052-2.683-.183-.296-.45-.465-1.013-.635-.844-.24-1.519-.677-3.038-1.906-.999-.804-1.997-1.397-2.377-1.397-.436 0-.366-.353.464-2.019 1.013-2.061 1.983-3.671 3.193-5.28.69-.918.9-1.299.9-1.666 0-1.002.535-2.71 1.154-3.769 3.544-5.873 6.245-12.099 11.787-27.148a297.237 297.237 0 012.813-7.2c1.589-3.938 2.616-6.592 4.36-11.434 1.814-4.984 5.654-15.092 8.763-23.012.914-2.357 1.434-3.91 1.702-5.096.407-1.878 1.617-6.127 3.164-11.124.9-2.909.999-3.36.999-4.377l-.014-1.143-.408.451c-.422.466-.647 1.116-1.055 3.078-.183.819-.52 1.666-1.266 3.106-1.223 2.371-1.28 2.527-1.547 4.574-.21 1.652-.394 2.103-.985 2.498-.52.34-1.097 2.033-2.39 7.045a96.407 96.407 0 01-.943 3.388c-.816 2.668-3.896 10.645-4.98 12.875-1.434 2.965-1.504 3.134-2.025 4.998-.83 2.936-1.477 4.8-3.418 9.868a214.07 214.07 0 00-1.786 4.87c-2.053 6-2.616 7.468-4.67 12.423-6.385 15.388-10.802 24.621-14.684 30.734-.76 1.186-.76 1.186-1.604 1.369-1.167.24-1.28.17-3.966-2.555-2.152-2.174-2.574-2.668-3.01-3.586-.478-.96-.52-1.157-.535-2.273-.014-1.214 0-1.242.366-1.426.211-.098.661-.508.985-.917.337-.395.9-1.017 1.252-1.37.45-.451.689-.832.83-1.341.154-.536.407-.917 1.082-1.623.69-.72 1.083-1.327 1.843-2.824.52-1.044 1.857-3.345 2.954-5.11 2.138-3.417 3.263-5.478 3.966-7.158.24-.578.661-1.313.97-1.651.76-.819 1.295-1.934 1.843-3.868.535-1.878.957-2.782 1.688-3.671.886-1.087.999-1.327 1.126-2.612.14-1.397.436-2.103 1.969-4.8.534-.931 1.575-2.992 2.32-4.588 4.037-8.569 7.399-15.966 10.493-23.082.872-2.018 2.152-4.785 2.842-6.14C62.428 54.78 63.623 52 66.83 43.712c.886-2.287 1.941-4.814 2.335-5.619.745-1.524.886-2.273.534-2.752-.182-.24-.225-.212-.647.352-.633.89-1.688 2.98-2.686 5.421-.928 2.231-1.829 4.123-2.265 4.744-.14.198-.295.65-.351.988-.324 2.273-.943 3.882-3.109 8.174-.844 1.666-1.688 3.53-1.87 4.122-.197.607-.422 1.102-.507 1.102-.084 0-.267.155-.394.352-.126.198-.365.353-.52.353-.225 0-.267.057-.197.24.056.142.127.452.169.692.07.41.028.48-.436.692-.661.325-.985.875-1.407 2.456-.436 1.624-.76 2.259-1.322 2.626-.422.268-.436.325-.45 1.242v.975l-.52-.057c-.45-.042-.535 0-.577.254-.028.17.056.55.169.833.126.296.225.65.225.79 0 .34-.507.551-1.28.551-.69 0-.746.325-.127.918.225.226.422.508.422.621 0 .127-.323.41-.717.65-1.252.748-1.829 1.835-1.843 3.486 0 .89-.014.946-.394 1.102-.31.127-.464.127-.703 0-.253-.142-.337-.127-.436.014-.07.113-.099.254-.07.339.028.07.126.38.239.663.126.381.14.65.042.918-.112.353-.211.395-.872.437-.872.057-.97.31-.31.946.507.48.535.777.099.777-.549 0-.9.55-1.336 2.117-.591 2.174-.929 2.682-1.702 2.682-.38 0-.507.495-.24.918.127.184.226.494.226.692 0 .282-.099.381-.535.494-.281.085-.605.155-.717.155-.155 0-.169.141-.084.664.182 1.242.154 1.623-.113 1.793-.211.127-.31.084-.577-.24-.351-.438-.66-.48-.942-.156-.155.184-.14.31.127.805.534 1.002.422 1.228-.422.875-.211-.084-.254-.028-.254.396 0 .409.099.578.507.917.844.706.492.861-1.196.508-.436-.084-.464-.07-.366.24.24.763.352.946.704 1.229.21.169.337.367.281.451-.042.071-.563.142-1.14.142-1.012 0-1.054.014-1.012.31.028.226.211.381.605.537.83.31.914.395.914.889 0 .791-.169.904-.942.678-.957-.269-1.224-.269-1.28.028-.028.155.21.508.66.946.76.734.859.988.493 1.284-.169.142-.352.142-.942 0-1.266-.296-1.294-.282-1.266.269.014.324.126.564.351.734.915.677 1.098.861 1.098 1.044 0 .269-.704.255-1.604-.014-.436-.141-.745-.169-.83-.084-.267.268.042.79.675 1.171.422.254.633.48.633.678 0 .395-.436.367-.844-.071-.394-.423-.984-.48-.984-.084 0 .141.098.494.21.762.282.678.282 1.567.015 1.468-.45-.183-1.224-.268-1.561-.183-.535.141-.465.607.14.847.408.183.492.282.492.635 0 .508-.182.551-.773.155-.577-.381-.633-.367-.633.212 0 .664.31 1.242.774 1.454.309.141.351.212.21.381-.253.297-.534.269-1.068-.141-.254-.198-.591-.353-.746-.353-.239 0-.295.085-.295.466 0 .254.098.805.225 1.214.112.41.183.791.14.833-.042.042-.239 0-.436-.085-.422-.197-.506-.197-.745-.056-.225.155.14 1.129.563 1.454.309.24.239.551-.113.551-.113 0-.394-.099-.619-.212-.38-.198-.422-.198-.548.042-.099.184-.057.424.168.861.52 1.017-.14 1.525-.956.72-.253-.254-.549-.423-.647-.395-.099.028-.183.452-.225 1.115-.056.876-.014 1.116.183 1.313.183.184.197.283.07.41s-.281.098-.647-.099c-.267-.156-.535-.24-.577-.198-.042.057-.014.325.07.607.17.65.085.875-.421 1.144-.465.24-.465.226-.24.861.226.635 0 .889-.506.55-.197-.127-.45-.225-.577-.225-.337 0-.267.875.127 1.454.24.353.296.536.183.649-.281.282-.605.169-1.28-.424-.844-.748-.985-.48-.38.777.788 1.638.408 2.132-.647.847-.267-.339-.548-.621-.619-.621-.197 0-.14.734.085 1.129.183.339.281.988.14.988a2.92 2.92 0 01-.408-.155c-.38-.183-.534-.48-.843-1.793-.183-.706-.38-1.073-.943-1.736-.394-.452-1.463-1.864-2.377-3.12l-1.646-2.301.324-.96c.534-1.581 1.111-2.443 2.222-3.332 1.42-1.129 1.998-1.75 2.195-2.372.295-.96.76-1.524 1.378-1.708.703-.212 1.477-1.073 2.546-2.809 1.758-2.866 2.94-4.504 5.162-7.172 2.968-3.557 3.587-4.404 5.542-7.51 2.39-3.798 3.207-4.998 3.868-5.69.337-.352 1.125-1.524 1.772-2.611 1.181-2.019 2.658-4.306 3.727-5.76.324-.438.999-1.581 1.477-2.541.999-1.977 3.376-6.282 6.175-11.181 3.516-6.17 5.542-9.967 7.201-13.553 1.07-2.273 2.785-6.465 2.785-6.748-.014-.099-.337.198-.745.636-.745.818-.844.988-2.363 4.122-.703 1.482-1.04 2.004-1.758 2.739-.732.762-.943 1.1-1.252 1.99-.549 1.567-2.827 6.155-4.107 8.273a941.685 941.685 0 00-3.278 5.364c-1.195 1.934-2.46 4.222-2.827 5.054-.717 1.638-1.223 2.429-1.66 2.57-.154.042-.295.268-.351.508-.112.621-.717 1.765-1.364 2.64-.675.89-1.224 1.948-1.35 2.597-.057.283-.38.791-.859 1.313-.436.466-1.252 1.582-1.828 2.47-2.152 3.333-2.616 3.982-3.446 4.815-.675.692-.985 1.158-1.505 2.287-1.379 3.05-3.15 5.619-5.64 8.202-1.379 1.454-2.209 2.485-3.77 4.744-2.729 3.966-4.304 5.985-6.062 7.75-2.138 2.16-3.7 3.106-5.472 3.346l-.76.099.071-.636c.07-.607.056-.649-.577-1.171a12.08 12.08 0 01-1.195-1.2c-.605-.72-1.604-2.725-2.054-4.123l-.31-.931.662-1.045c1.35-2.075 3.826-4.715 7.384-7.807 2.391-2.09 4.923-4.588 4.923-4.87 0-.127.099-.353.211-.509.113-.14.211-.466.211-.691 0-.34.169-.608.718-1.13 1.21-1.186 4.022-4.404 6.3-7.214 3.897-4.785 6.133-7.44 7.723-9.134 1.027-1.115 1.927-2.258 2.644-3.388 1.87-2.936 4.614-7.03 8.144-12.169 6.02-8.753 8.918-13.228 11.492-17.731 1.687-2.937 4.107-7.595 4.008-7.708-.155-.156-.802.113-1.266.522-.52.452-.773.96-1.237 2.499-.408 1.383-.647 1.722-1.913 2.753-1.857 1.51-2.026 1.708-1.998 2.569.029.678-.042.833-.675 1.793-.394.579-1.04 1.694-1.448 2.485-.858 1.722-1.716 2.738-2.603 3.105l-.633.254V51.9l-.604.367c-.352.198-.83.353-1.126.353-.576 0-.633.141-.31.706.113.198.198.522.212.72 0 .325-.07.395-.478.466-.577.113-.774.325-1.393 1.581-.506 1.002-1.055 1.61-1.463 1.61-.14 0-.183.084-.112.24.056.14.126.465.169.705.07.438.042.48-.563.734-.76.325-.985.692-.914 1.44l.056.55h-1.463l.07.594c.099.946-.309 1.468-1.364 1.764l-.844.226v.89c0 .974-.239 1.299-.731 1.03-.225-.113-.24-.084-.155.297.07.395 0 .508-.788 1.242-.858.805-.858.805-.858 1.581v.777l-.745.353c-.675.324-.745.395-.844.988-.169.833-.267.946-1.013 1.059-.703.098-.914.353-.914 1.087 0 .748-.183.917-.731.706-.408-.156-.493-.142-.647.07-.099.141-.155.353-.113.466.028.113.127.41.197.65l.14.451-1.251.522c-.69.283-1.28.58-1.336.65-.043.07.07.41.239.762.394.777.267.974-.464.748-.915-.282-1.337.156-.83.862.169.226.295.536.295.677 0 .692-.872.833-1.35.212-.169-.212-.352-.339-.394-.297-.056.043-.155.48-.24.96-.168.96-.337 1.045-1.11.65-.352-.184-.422-.184-.422-.028 0 .338.422 1.425.59 1.524.127.085.127.156-.014.325-.154.183-.225.183-.604-.056-.507-.311-.816-.226-.816.211 0 .184-.225.607-.507.946-.562.65-.9 1.341-.9 1.793 0 .339-.45.508-.83.31a1.55 1.55 0 00-.633-.155c-.28 0-.365.071-.365.31a1.9 1.9 0 00.21.679c.437.762.057 1.355-.618 1.002a1.617 1.617 0 00-.647-.155c-.31 0-.352.056-.296.282.043.155.127.41.17.579.238.847-.423 1.313-.873.62-.281-.423-.422-.437-.619-.056-.126.212-.112.438.056.932.127.367.226.805.226.988 0 .311-.043.325-.97.325-.55 0-1.028.07-1.07.141-.056.085.07.34.281.593.69.819.141 1.483-.633.748-.225-.211-.506-.352-.66-.324-.212.042-.254.183-.24.86.014.876-.126 1.017-.576.523-.296-.339-.746-.367-.858-.07-.057.113.014.465.14.776.127.31.225.607.225.65 0 .084-.365.028-1.167-.17-.366-.085-.38-.07-.38.48 0 .31.098.664.211.776.183.184.183.24-.014.396-.183.141-.295.141-.661-.014a3.365 3.365 0 00-.872-.198c-.366-.014-.422.028-.366.339.014.198.155.508.296.72.14.198.309.536.365.748l.085.381-.535-.24c-.31-.127-.717-.268-.942-.31-.366-.057-.38-.043-.38.593 0 .536-.042.649-.253.649-.14 0-.352-.155-.45-.353-.211-.395-.52-.41-.76-.042-.112.183-.084.41.099.917.436 1.214.168 1.779-.436.932-.183-.254-.338-.339-.52-.282-.198.084-.226.197-.156.635.197 1.073.17 1.355-.098 1.412-.605.127-1.14-.763-1.35-2.245-.127-.89-.366-1.496-1.618-4.08-.816-1.666-1.716-3.459-2.011-3.98l-.535-.947.704-.72c.928-.974 1.983-1.694 4.416-3.091 5.936-3.403 15.697-11.224 25.121-20.118 5.64-5.336 8.847-8.583 9.255-9.416.563-1.115 1.59-2.442 2.842-3.656.604-.58 1.406-1.525 1.8-2.118.394-.579 1.505-2.075 2.49-3.317.97-1.243 2.067-2.669 2.419-3.177.605-.875 1.94-3.148 1.94-3.317 0-.043-.337.098-.73.296-1.056.536-2.63 2.188-4.29 4.503-.774 1.087-2.786 3.6-4.473 5.577a328.863 328.863 0 00-4.895 5.887c-1.407 1.779-1.97 2.357-2.42 2.583-.351.17-1.026.763-1.603 1.398-.548.607-1.238 1.242-1.547 1.383-.408.212-.76.58-1.28 1.356-.802 1.214-1.899 2.272-3.25 3.148-.506.325-1.012.706-1.124.847-.113.127-1.688 1.482-3.503 3.007-1.814 1.51-3.91 3.374-4.655 4.122-.915.932-1.8 1.652-2.743 2.245-1.744 1.1-2.94 1.962-7.16 5.152C6.995 87.9 4.407 89.61 3.718 89.61c-.281 0-.436-.113-.619-.452a4.008 4.008 0 00-.562-.79l-.324-.34.14-3.628c.155-3.53.38-5.66.76-6.931.183-.636.197-.636 1.998-1.553 1.012-.509 2.77-1.356 3.91-1.892 2.461-1.158 4.008-2.09 5.05-3.035.463-.424 1.448-1.03 2.573-1.61 3.32-1.694 6.766-3.91 10.901-7.002 2.363-1.764 11.295-8.908 13.573-10.87 2.026-1.722 5.12-4.8 6.499-6.438 1.11-1.313 3.488-4.715 3.375-4.828-.098-.099-1.223.367-1.66.692-.239.183-.773.847-1.195 1.482-.802 1.186-2.658 2.98-9.129 8.725-3.882 3.444-4.163 3.684-4.993 4.023-1.224.523-2.532 1.44-3.488 2.457-.703.72-.985.931-1.294.931-.225 0-.45-.07-.506-.155-.057-.099-.155-.028-.254.17-.084.169-.492.522-.914.762-.9.536-1.14.819-1.14 1.383 0 .41-.013.41-.534.353-.478-.07-.548-.042-.703.31-.112.24-.478.552-.984.82-.887.48-1.21.776-1.35 1.256-.142.438-.648.424-1.182-.028-.507-.424-.732-.452-.633-.057.098.353-.197.946-.52 1.045-.45.141-.985.748-.985 1.13 0 .409-.07.423-.76.14-.38-.169-.59-.183-.788-.07-.323.184-.337.24-.07.706.267.466.267.974-.014 1.087-.127.042-.436-.028-.703-.155a2.768 2.768 0 00-.985-.226h-.506l.098.706c.07.48.043.776-.07.917-.281.34-.675.24-.914-.212-.408-.79-1.013-.423-1.154.678-.07.636-.126.748-.436.833-.28.07-.436 0-.675-.282-.183-.212-.422-.381-.534-.381-.211 0-.464.649-.535 1.383l-.042.339-.38-.297c-.464-.38-.647-.38-.703.015-.042.296-.24.451-1.167.847-.338.155-.436.296-.493.748-.07.536-.098.564-.548.536-.324-.014-.62-.17-.985-.522-.281-.282-.562-.508-.619-.508-.056 0-.098.38-.098.86v.862l-.408-.099c-.563-.127-.942.113-1.28.777-.408.804-.746.945-1.111.48-.422-.537-.38-1.497.126-3.05.24-.72.465-1.722.52-2.23l.085-.918 1.772-.621c3.573-1.228 6.71-2.866 10.873-5.675 2.715-1.821 3.713-2.598 5.401-4.207 1.857-1.779 2.813-2.386 6.597-4.15 2.644-1.257 3.896-1.92 4.712-2.528.745-.564 1.744-1.623 2.18-2.3.45-.72.97-1.892.872-1.991-.028-.029-.394.197-.816.522-1.336 1.002-3.924 2.598-8.383 5.153-6.273 3.586-9.227 5.618-11.463 7.863-.661.664-1.083.96-1.66 1.158a4.798 4.798 0 00-1.406.847c-.352.31-1.14.932-1.759 1.37-.618.437-1.308.987-1.533 1.227-.253.269-.562.438-.773.438-.675 0-2.335.424-2.996.748l-.675.34-.338-.51c-.802-1.2-.816-2.413-.07-3.825.239-.466 1.097-1.666 1.899-2.654.9-1.13 1.645-2.23 1.983-2.936.45-.932.66-1.214 1.364-1.737.464-.353 1.125-1.044 1.477-1.539 2.996-4.22 4.388-5.844 5.992-6.945 1.8-1.243 4.05-2.273 7.469-3.403l2.236-.734 4.571-.099c3.896-.098 4.712-.155 5.556-.38 3.615-1.017 7.666-3.12 10.648-5.52 1.224-1.003 1.125-.777 2.292-5.323 1.393-5.42 2.068-7.496 3.095-9.529.323-.635.352-.847.352-2.598 0-1.369-.127-2.767-.45-5.053-.31-2.245-.45-3.713-.45-5.125-.015-1.835.014-2.047.393-3.078.296-.804.591-1.313 1.097-1.877l.704-.763.478.353c.703.537 1.87 1.045 2.968 1.27.618.142 2.222.24 4.543.283 3.797.085 4.909.198 6.23.65.76.254.887.268 1.492.07 1.449-.452 2.996-.692 6.765-1.002 3.01-.254 3.123-.282 3.868-.706.31-.184 1.07-.424 1.688-.55 3.291-.65 6.105-.749 12.73-.438 5.668.254 6.54.24 10.127-.283 2.799-.409 4.951-.395 7.159.071zm5.936 31.03c.562.367 1.673 1.496 1.673 1.708 0 .057-.14.155-.309.226-.802.353-.38 1.073 1.449 2.414 1.842 1.355 2.433 2.075 2.728 3.332.296 1.214.38 1.397.858 1.891l.366.353.38-.353c.422-.409.647-.465.759-.169.043.113.507.423 1.041.706 1.28.678 2.771 1.821 5.317 4.08 2.729 2.442 3.418 2.978 8.299 6.593 2.25 1.651 5.499 4.15 7.215 5.534 4.501 3.614 6.077 4.63 13.672 8.893 4.557 2.556 6.569 3.756 8.116 4.8.928.621 1.083.678 1.856.678.788 0 .915.042 1.66.635.45.34 1.224.932 1.73 1.3 1.787 1.326 2.054 2.61 1.336 6.479a103.262 103.262 0 01-.436 2.301c-.042.141-.225.17-.773.099-1.125-.155-1.815-.466-5.345-2.485-5.668-3.233-8.271-4.997-10.577-7.185-.957-.904-1.308-1.144-1.632-1.144-.239 0-.717-.155-1.083-.353-.366-.198-.745-.353-.844-.353-.098 0-.211-.127-.267-.268-.042-.155-.366-.508-.703-.79-.352-.283-.633-.636-.633-.777 0-.184-.31-.424-1.013-.805-1.364-.72-2.827-1.82-4.628-3.515-2.335-2.202-3.418-3.134-5.696-4.899-3.643-2.81-4.67-3.699-8.285-7.129-5.302-5.04-7.989-7.764-10.043-10.263-2.799-3.374-3.6-4.504-4.458-6.212-.521-1.016-1.027-1.821-1.519-2.33-1.168-1.227-2.152-2.794-1.998-3.19.127-.353 1.083-.24 1.787.198zm3.643 2.71c.295.156 1.04.706 1.645 1.215.605.522 1.351 1.115 1.646 1.312l.563.367-.591.043c-.802.056-1.829-.508-2.757-1.539-.703-.79-1.308-1.68-1.139-1.68.042 0 .323.127.633.282z" fill="#fff" opacity=".15"/></svg>