<?xml version="1.0" standalone="no"?>
<!DOCTYPE svg PUBLIC "-//W3C//DTD SVG 20010904//EN"
 "http://www.w3.org/TR/2001/REC-SVG-20010904/DTD/svg10.dtd">
<svg version="1.0" xmlns="http://www.w3.org/2000/svg"
 width="127.000000pt" height="127.000000pt" viewBox="0 0 127.000000 127.000000"
 preserveAspectRatio="xMidYMid meet">
<metadata>
Created by potrace 1.14, written by Peter Selinger 2001-2017
</metadata>
<g transform="translate(0.000000,127.000000) scale(0.100000,-0.100000)"
fill="#000000" stroke="none">
<path d="M879 1268 c-7 -27 -4 -40 9 -45 9 -4 27 -13 39 -21 l23 -14 -41 -30
c-60 -43 -36 -59 28 -19 32 20 63 31 87 31 25 0 36 4 36 15 0 11 -11 15 -38
15 -26 0 -53 10 -90 35 -28 20 -52 34 -53 33z"/>
<path d="M1142 880 l3 -325 35 -1 c19 0 40 1 46 3 7 3 10 109 10 325 l-1 322
-48 0 -47 1 2 -325z"/>
<path d="M975 1084 c-44 -20 -84 -39 -88 -44 -5 -4 22 -22 60 -40 108 -51 113
-53 113 -30 0 11 -7 20 -15 20 -22 0 -21 79 1 95 9 6 15 17 13 23 -3 7 -34 -2
-84 -24z m25 -48 c0 -23 -2 -24 -30 -13 l-30 11 23 13 c32 18 37 16 37 -11z"/>
<path d="M875 941 c-7 -12 8 -22 65 -42 l45 -17 -35 -14 c-19 -8 -44 -18 -54
-22 -24 -8 -22 -10 38 -34 l49 -19 -49 -19 c-51 -19 -69 -33 -55 -47 6 -6 140
40 175 61 5 3 -15 14 -45 25 l-54 20 55 25 55 24 -84 34 c-93 37 -97 38 -106
25z"/>
<path d="M770 748 c-25 -5 -63 -14 -84 -20 l-40 -10 63 -30 c69 -33 69 -35
-11 -73 -21 -9 -38 -20 -38 -24 0 -9 161 -42 172 -35 17 11 7 23 -24 29 -71
14 -71 15 -18 43 l51 26 -53 27 -52 26 34 7 c60 13 70 17 70 32 0 16 -6 16
-70 2z"/>
<path d="M901 673 c-15 -13 -22 -32 -25 -65 -2 -27 0 -49 3 -49 3 -1 45 -2 94
-3 79 -1 87 0 87 17 0 14 -7 18 -27 17 -16 -1 -32 -2 -36 -1 -15 2 14 42 39
53 13 6 24 19 24 30 0 22 -4 22 -35 2 -23 -15 -28 -15 -59 0 -42 20 -39 20
-65 -1z m60 -38 c4 -49 4 -50 -21 -47 -33 5 -40 13 -34 40 7 26 53 32 55 7z"/>
<path d="M17 496 c-12 -9 -17 -24 -15 -42 3 -27 9 -32 78 -64 8 -4 15 -13 15
-21 0 -18 -52 -24 -70 -9 -12 10 -16 9 -21 -5 -9 -22 12 -35 57 -35 39 0 69
24 69 56 0 30 -12 41 -58 55 -56 16 -55 44 2 44 44 0 59 19 24 29 -36 9 -61 7
-81 -8z"/>
<path d="M177 502 c-2 -4 -3 -45 -3 -92 l1 -85 53 -3 c42 -2 52 0 52 12 0 11
-10 16 -33 16 -40 0 -46 5 -40 30 3 12 16 20 37 22 17 2 31 8 31 13 0 6 -14
11 -31 13 -21 2 -34 10 -37 22 -6 25 0 30 40 30 20 0 33 5 33 13 0 13 -96 23
-103 9z"/>
<path d="M352 421 c-23 -50 -42 -94 -42 -96 0 -12 30 -3 38 11 14 25 80 27 93
3 9 -18 40 -27 38 -11 0 4 -19 47 -42 96 l-42 90 -43 -93z m68 -33 c0 -5 -11
-8 -25 -8 -29 0 -29 0 -13 35 l12 26 13 -23 c7 -13 12 -26 13 -30z"/>
<path d="M517 503 c-2 -5 -3 -46 -3 -93 1 -68 4 -85 16 -85 8 0 16 9 16 20 1
11 2 28 3 38 1 12 10 17 31 17 20 0 30 5 30 15 0 10 -10 15 -29 15 -33 0 -44
11 -35 34 4 10 18 16 40 16 26 0 32 3 28 15 -6 16 -89 22 -97 8z"/>
<path d="M688 492 c-36 -22 -52 -68 -37 -109 31 -90 166 -81 183 12 16 86 -71
144 -146 97z m94 -29 c38 -35 12 -113 -39 -113 -56 0 -86 83 -41 114 29 21 57
20 80 -1z"/>
<path d="M906 487 c-24 -20 -29 -31 -30 -71 -1 -41 3 -51 27 -72 54 -46 135
-24 157 42 31 93 -77 162 -154 101z m106 -24 c26 -23 24 -78 -4 -97 -12 -9
-30 -16 -39 -16 -28 0 -61 34 -61 63 0 57 63 87 104 50z"/>
<path d="M1110 415 l0 -98 56 6 c76 8 94 26 94 93 0 46 -4 56 -24 69 -14 9
-47 19 -75 22 l-51 5 0 -97z m100 47 c45 -37 20 -104 -40 -108 l-30 -2 0 64
c0 61 1 64 24 64 13 0 34 -8 46 -18z"/>
<path d="M798 268 c-26 -18 -29 -18 -50 -4 -54 38 -98 7 -98 -68 l0 -47 93 3
c94 3 121 18 50 28 l-38 6 42 39 c47 45 48 78 1 43z m-58 -63 c0 -21 -5 -25
-30 -25 -26 0 -30 3 -30 29 0 16 6 31 13 34 21 8 47 -13 47 -38z"/>
<path d="M878 263 c-13 -16 1 -21 60 -25 l44 -3 -42 -40 c-75 -73 -74 -75 30
-75 82 0 91 2 88 17 -3 15 -13 18 -57 16 l-54 -2 56 57 c32 32 57 60 57 62 0
12 -172 4 -182 -7z"/>
<path d="M650 60 l0 -50 90 0 c73 0 90 3 90 15 0 10 -11 15 -35 15 -32 0 -35
3 -35 29 0 16 -6 31 -15 35 -12 4 -15 -3 -15 -29 0 -31 -3 -35 -25 -35 -22 0
-25 4 -25 35 0 24 -5 35 -15 35 -11 0 -15 -12 -15 -50z"/>
</g>
</svg>
